<svg xmlns="http://www.w3.org/2000/svg" xmlns:xlink="http://www.w3.org/1999/xlink" width="367" zoomAndPan="magnify" viewBox="0 0 275.25 61.499998" height="82" preserveAspectRatio="xMidYMid meet" version="1.0"><defs><filter x="0%" y="0%" width="100%" height="100%" id="88a349172b"><feColorMatrix values="0 0 0 0 1 0 0 0 0 1 0 0 0 0 1 0 0 0 1 0" color-interpolation-filters="sRGB"/></filter><g/><clipPath id="23cc15c634"><path d="M 1 0 L 60.253906 0 L 60.253906 60 L 1 60 Z M 1 0 " clip-rule="nonzero"/></clipPath><mask id="9719d4f40a"><g filter="url(#88a349172b)"><rect x="-27.525" width="330.3" fill="#000000" y="-6.15" height="73.799998" fill-opacity="0.23"/></g></mask><clipPath id="6b697783f2"><path d="M 0.257812 0.425781 L 7 0.425781 L 7 3 L 0.257812 3 Z M 0.257812 0.425781 " clip-rule="nonzero"/></clipPath><clipPath id="c020541eba"><path d="M 11 5 L 21.921875 5 L 21.921875 18.996094 L 11 18.996094 Z M 11 5 " clip-rule="nonzero"/></clipPath><clipPath id="ca41c41fe0"><rect x="0" width="22" y="0" height="19"/></clipPath><mask id="c1ced18ce1"><g filter="url(#88a349172b)"><rect x="-27.525" width="330.3" fill="#000000" y="-6.15" height="73.799998" fill-opacity="0.32"/></g></mask><clipPath id="5f346ecd82"><path d="M 0.117188 22 L 2 22 L 2 24 L 0.117188 24 Z M 0.117188 22 " clip-rule="nonzero"/></clipPath><clipPath id="1710eadf6d"><path d="M 0.117188 38 L 3 38 L 3 41 L 0.117188 41 Z M 0.117188 38 " clip-rule="nonzero"/></clipPath><clipPath id="04fa3d2f7b"><path d="M 40 38 L 42.492188 38 L 42.492188 42 L 40 42 Z M 40 38 " clip-rule="nonzero"/></clipPath><clipPath id="31d6aba043"><path d="M 16 0.332031 L 18 0.332031 L 18 2 L 16 2 Z M 16 0.332031 " clip-rule="nonzero"/></clipPath><clipPath id="8c832fcb98"><rect x="0" width="43" y="0" height="44"/></clipPath><mask id="44c954381d"><g filter="url(#88a349172b)"><rect x="-27.525" width="330.3" fill="#000000" y="-6.15" height="73.799998" fill-opacity="0.77"/></g></mask><clipPath id="4d4b5f4f4b"><path d="M 0.449219 0.519531 L 9.496094 0.519531 L 9.496094 11 L 0.449219 11 Z M 0.449219 0.519531 " clip-rule="nonzero"/></clipPath><clipPath id="b12e6025f4"><rect x="0" width="10" y="0" height="12"/></clipPath></defs><path fill="#000000" d="M 50.886719 28.632812 L 17.039062 9.085938 L 17.039062 48.175781 Z M 50.886719 28.632812 " fill-opacity="1" fill-rule="nonzero"/><path fill="#d11d4d" d="M 40.414062 31.03125 L 35.039062 34.132812 L 30.332031 36.851562 L 24.355469 40.304688 C 23.613281 40.730469 22.796875 40.773438 22.085938 40.53125 C 21.941406 40.484375 21.804688 40.425781 21.675781 40.355469 C 20.882812 39.9375 20.292969 39.144531 20.203125 38.15625 C 20.199219 38.074219 20.195312 37.988281 20.195312 37.902344 L 20.195312 19.359375 C 20.195312 17.484375 21.980469 16.226562 23.667969 16.671875 C 23.898438 16.734375 24.132812 16.828125 24.355469 16.957031 C 24.355469 16.957031 24.355469 16.960938 24.355469 16.960938 L 24.757812 17.191406 L 25.699219 17.734375 L 40.414062 26.230469 C 42.261719 27.296875 42.261719 29.964844 40.414062 31.03125 Z M 40.414062 31.03125 " fill-opacity="1" fill-rule="nonzero"/><path fill="#ffae00" d="M 40.414062 31.03125 C 40.414062 31.03125 40.410156 31.03125 40.410156 31.035156 L 35.039062 34.136719 L 30.332031 36.851562 L 24.355469 40.304688 C 23.613281 40.734375 22.796875 40.773438 22.085938 40.53125 C 21.492188 40.085938 21.070312 39.398438 21 38.578125 C 20.992188 38.496094 20.988281 38.410156 20.988281 38.324219 L 20.988281 19.78125 C 20.988281 17.902344 22.773438 16.648438 24.460938 17.09375 C 24.558594 17.121094 24.660156 17.152344 24.757812 17.191406 L 25.699219 17.734375 L 40.414062 26.230469 C 42.261719 27.296875 42.261719 29.964844 40.414062 31.03125 Z M 40.414062 31.03125 " fill-opacity="1" fill-rule="nonzero"/><g clip-path="url(#23cc15c634)"><path fill="#000000" d="M 51.460938 26.679688 L 40.53125 6.121094 C 38.617188 2.523438 34.894531 0.285156 30.820312 0.285156 C 30.179688 0.285156 29.535156 0.339844 28.90625 0.453125 L 6.21875 4.453125 L 15.0625 9.566406 L 2.722656 29.3125 C 1.484375 31.296875 0.914062 33.578125 1.078125 35.910156 C 1.242188 38.242188 2.121094 40.421875 3.625 42.214844 L 18.433594 59.859375 L 18.4375 49.644531 L 41.707031 50.457031 C 41.835938 50.464844 41.96875 50.464844 42.09375 50.464844 C 44.359375 50.464844 46.539062 49.777344 48.398438 48.480469 C 50.257812 47.179688 51.652344 45.363281 52.429688 43.226562 L 60.308594 21.578125 Z M 18.441406 45.726562 L 18.457031 11.527344 L 48.0625 28.640625 Z M 18.441406 45.726562 " fill-opacity="1" fill-rule="nonzero"/></g><path fill="#ffae00" d="M 39.273438 6.789062 L 50.886719 28.632812 L 50.882812 28.628906 L 10.304688 5.175781 L 11.84375 4.90625 L 29.152344 1.851562 C 33.238281 1.132812 37.328125 3.125 39.273438 6.789062 Z M 39.273438 6.789062 " fill-opacity="1" fill-rule="nonzero"/><path fill="#d11d4d" d="M 57.640625 24.757812 L 56.871094 26.867188 L 51.09375 42.742188 C 49.675781 46.640625 45.90625 49.183594 41.757812 49.039062 L 17.039062 48.175781 L 17.042969 48.171875 Z M 57.640625 24.757812 " fill-opacity="1" fill-rule="nonzero"/><path fill="#00ffc7" d="M 17.035156 9.089844 L 17.023438 40.523438 L 17.015625 55.960938 L 15.753906 54.457031 L 12.160156 50.171875 L 5.992188 42.820312 L 4.714844 41.300781 C 2.046875 38.121094 1.726562 33.585938 3.929688 30.066406 L 7.761719 23.933594 Z M 17.035156 9.089844 " fill-opacity="1" fill-rule="nonzero"/><path fill="#000000" d="M 17.035156 9.089844 L 12.160156 50.171875 L 5.992188 42.824219 L 4.714844 41.300781 C 2.046875 38.121094 1.726562 33.585938 3.929688 30.066406 Z M 17.035156 9.089844 " fill-opacity="0.23" fill-rule="nonzero"/><path fill="#000000" d="M 17.035156 9.089844 L 5.992188 42.820312 L 4.714844 41.300781 C 2.046875 38.121094 1.726562 33.585938 3.929688 30.066406 Z M 17.035156 9.089844 " fill-opacity="0.23" fill-rule="nonzero"/><path fill="#000000" d="M 50.886719 28.632812 L 17.746094 3.863281 L 27.195312 2.195312 L 29.152344 1.851562 C 33.238281 1.132812 37.328125 3.125 39.273438 6.789062 Z M 50.886719 28.632812 " fill-opacity="0.23" fill-rule="nonzero"/><path fill="#000000" d="M 50.886719 28.632812 L 27.195312 2.199219 L 29.152344 1.851562 C 33.238281 1.132812 37.328125 3.125 39.273438 6.789062 Z M 50.886719 28.632812 " fill-opacity="0.23" fill-rule="nonzero"/><path fill="#000000" d="M 17.035156 48.175781 L 55.054688 31.855469 L 51.773438 40.875 L 51.09375 42.742188 C 49.675781 46.640625 45.90625 49.183594 41.757812 49.039062 Z M 17.035156 48.175781 " fill-opacity="0.23" fill-rule="nonzero"/><path fill="#000000" d="M 17.035156 48.175781 L 51.773438 40.875 L 51.09375 42.742188 C 49.675781 46.640625 45.90625 49.183594 41.757812 49.039062 Z M 17.035156 48.175781 " fill-opacity="0.23" fill-rule="nonzero"/><path fill="#ffffff" d="M 50.886719 28.628906 L 50.882812 28.628906 L 10.304688 5.175781 L 11.84375 4.90625 Z M 50.886719 28.628906 " fill-opacity="0.46" fill-rule="nonzero"/><path fill="#ffffff" d="M 17.035156 9.089844 L 17.015625 55.960938 L 15.753906 54.457031 Z M 17.035156 9.089844 " fill-opacity="0.46" fill-rule="nonzero"/><path fill="#ffffff" d="M 57.640625 24.757812 L 56.871094 26.867188 L 17.039062 48.175781 L 17.042969 48.171875 Z M 57.640625 24.757812 " fill-opacity="0.46" fill-rule="nonzero"/><g mask="url(#9719d4f40a)"><g transform="matrix(1, 0, 0, 1, 20, 16)"><g clip-path="url(#ca41c41fe0)"><g clip-path="url(#6b697783f2)"><path fill="#000000" d="M 3.363281 1.863281 C 4.5625 1.863281 5.71875 2.042969 6.808594 2.375 L 5.699219 1.734375 L 4.355469 0.960938 C 4.355469 0.960938 4.355469 0.957031 4.355469 0.957031 C 4.128906 0.828125 3.898438 0.734375 3.667969 0.671875 C 2.347656 0.324219 0.96875 1.015625 0.429688 2.230469 C 1.367188 1.988281 2.351562 1.863281 3.363281 1.863281 Z M 3.363281 1.863281 " fill-opacity="1" fill-rule="nonzero"/></g><g clip-path="url(#c020541eba)"><path fill="#000000" d="M 20.414062 10.230469 L 11.375 5.011719 C 13.683594 7.160156 15.132812 10.226562 15.132812 13.628906 C 15.132812 15.46875 14.710938 17.210938 13.957031 18.761719 L 15.039062 18.136719 L 20.410156 15.035156 C 22.261719 13.964844 22.261719 11.296875 20.414062 10.230469 Z M 20.414062 10.230469 " fill-opacity="1" fill-rule="nonzero"/></g></g></g></g><path fill="#000000" d="M 20.195312 33.410156 L 20.195312 37.902344 C 20.195312 37.988281 20.199219 38.074219 20.203125 38.15625 C 20.378906 40.140625 22.578125 41.328125 24.351562 40.304688 L 27.421875 38.535156 C 24.292969 38.035156 21.652344 36.09375 20.195312 33.410156 Z M 20.195312 33.410156 " fill-opacity="0.23" fill-rule="nonzero"/><path fill="#000000" d="M 17.023438 40.523438 L 17.015625 55.960938 L 15.753906 54.457031 L 12.160156 50.171875 L 5.992188 42.820312 L 4.714844 41.300781 C 2.046875 38.121094 1.726562 33.585938 3.929688 30.066406 L 7.761719 23.933594 C 6.453125 28.042969 6.171875 33.074219 9.414062 37.828125 C 12.082031 41.742188 14.734375 41.894531 17.023438 40.523438 Z M 17.023438 40.523438 " fill-opacity="0.23" fill-rule="nonzero"/><path fill="#000000" d="M 23.671875 12.902344 L 10.304688 5.175781 L 12.238281 4.835938 L 17.746094 3.863281 L 27.195312 2.195312 L 29.152344 1.851562 C 33.238281 1.132812 37.328125 3.125 39.273438 6.789062 L 42.667969 13.175781 C 39.761719 9.988281 35.546875 7.226562 29.808594 7.65625 C 25.085938 8.011719 23.625 10.234375 23.671875 12.902344 Z M 23.671875 12.902344 " fill-opacity="0.23" fill-rule="nonzero"/><path fill="#000000" d="M 44.265625 32.46875 L 57.640625 24.757812 L 56.96875 26.601562 L 55.054688 31.855469 L 51.773438 40.875 L 51.09375 42.742188 C 49.675781 46.640625 45.90625 49.183594 41.757812 49.039062 L 34.53125 48.785156 C 38.742188 47.863281 43.242188 45.59375 45.742188 40.40625 C 47.796875 36.136719 46.601562 33.765625 44.265625 32.46875 Z M 44.265625 32.46875 " fill-opacity="0.23" fill-rule="nonzero"/><path fill="#ffffff" d="M 40.414062 31.03125 L 35.039062 34.132812 L 30.332031 36.851562 L 24.355469 40.304688 C 23.464844 40.816406 22.46875 40.777344 21.675781 40.355469 Z M 40.414062 31.03125 " fill-opacity="0.32" fill-rule="nonzero"/><path fill="#ffffff" d="M 35.324219 28.179688 L 34.691406 28.542969 L 31.550781 30.359375 L 28.242188 32.269531 L 24.039062 34.695312 C 23.519531 34.996094 22.945312 35.023438 22.445312 34.855469 C 22.027344 34.539062 21.734375 34.058594 21.683594 33.480469 C 21.675781 33.421875 21.675781 33.363281 21.675781 33.300781 L 21.675781 20.269531 C 21.675781 18.953125 22.925781 18.066406 24.113281 18.382812 C 24.183594 18.398438 24.253906 18.421875 24.324219 18.449219 L 24.984375 18.832031 L 35.324219 24.800781 C 36.625 25.550781 36.625 27.425781 35.324219 28.179688 Z M 35.324219 28.179688 " fill-opacity="0.18" fill-rule="nonzero"/><path fill="#ffffff" d="M 35.324219 27.648438 L 31.550781 29.828125 L 28.242188 31.738281 L 24.039062 34.164062 C 23.519531 34.464844 22.945312 34.496094 22.445312 34.324219 C 22.027344 34.011719 21.734375 33.53125 21.683594 32.953125 C 21.675781 32.894531 21.675781 32.835938 21.675781 32.773438 L 21.675781 19.742188 C 21.675781 18.421875 22.929688 17.539062 24.113281 17.851562 C 24.183594 17.871094 24.253906 17.894531 24.324219 17.921875 L 24.984375 18.300781 L 35.324219 24.273438 C 36.625 25.023438 36.625 26.898438 35.324219 27.648438 Z M 35.324219 27.648438 " fill-opacity="0.32" fill-rule="nonzero"/><g mask="url(#c1ced18ce1)"><g transform="matrix(1, 0, 0, 1, 8, 3)"><g clip-path="url(#8c832fcb98)"><g clip-path="url(#5f346ecd82)"><path fill="#ffffff" d="M 1.402344 23.375 C 1.402344 23.488281 1.363281 23.585938 1.28125 23.667969 C 1.199219 23.75 1.101562 23.792969 0.984375 23.792969 C 0.867188 23.792969 0.769531 23.75 0.6875 23.667969 C 0.605469 23.585938 0.566406 23.488281 0.566406 23.375 C 0.566406 23.257812 0.605469 23.160156 0.6875 23.078125 C 0.769531 22.996094 0.867188 22.957031 0.984375 22.957031 C 1.101562 22.957031 1.199219 22.996094 1.28125 23.078125 C 1.363281 23.160156 1.402344 23.257812 1.402344 23.375 Z M 1.402344 23.375 " fill-opacity="1" fill-rule="nonzero"/></g><path fill="#ffffff" d="M 5.816406 30.394531 C 5.816406 30.648438 5.726562 30.867188 5.542969 31.050781 C 5.363281 31.230469 5.144531 31.320312 4.886719 31.320312 C 4.632812 31.320312 4.414062 31.230469 4.230469 31.050781 C 4.050781 30.867188 3.960938 30.648438 3.960938 30.394531 C 3.960938 30.136719 4.050781 29.917969 4.230469 29.738281 C 4.414062 29.558594 4.632812 29.464844 4.886719 29.464844 C 5.144531 29.464844 5.363281 29.558594 5.542969 29.738281 C 5.726562 29.917969 5.816406 30.136719 5.816406 30.394531 Z M 5.816406 30.394531 " fill-opacity="1" fill-rule="nonzero"/><g clip-path="url(#1710eadf6d)"><path fill="#ffffff" d="M 2.195312 39.730469 C 2.195312 39.863281 2.167969 39.996094 2.117188 40.121094 C 2.066406 40.246094 1.992188 40.355469 1.898438 40.449219 C 1.800781 40.546875 1.691406 40.617188 1.566406 40.671875 C 1.441406 40.722656 1.3125 40.75 1.175781 40.75 C 1.042969 40.75 0.914062 40.722656 0.789062 40.671875 C 0.664062 40.617188 0.550781 40.546875 0.457031 40.449219 C 0.363281 40.355469 0.289062 40.246094 0.234375 40.121094 C 0.183594 39.996094 0.160156 39.863281 0.160156 39.730469 C 0.160156 39.59375 0.183594 39.464844 0.234375 39.339844 C 0.289062 39.214844 0.363281 39.105469 0.457031 39.007812 C 0.550781 38.914062 0.664062 38.839844 0.789062 38.789062 C 0.914062 38.738281 1.042969 38.710938 1.175781 38.710938 C 1.3125 38.710938 1.441406 38.738281 1.566406 38.789062 C 1.691406 38.839844 1.800781 38.914062 1.898438 39.007812 C 1.992188 39.105469 2.066406 39.214844 2.117188 39.339844 C 2.167969 39.464844 2.195312 39.59375 2.195312 39.730469 Z M 2.195312 39.730469 " fill-opacity="1" fill-rule="nonzero"/></g><path fill="#ffffff" d="M 34.097656 41.222656 C 34.097656 41.355469 34.054688 41.464844 33.960938 41.558594 C 33.867188 41.652344 33.753906 41.699219 33.625 41.699219 C 33.492188 41.699219 33.382812 41.652344 33.289062 41.558594 C 33.195312 41.464844 33.148438 41.355469 33.148438 41.222656 C 33.148438 41.089844 33.195312 40.980469 33.289062 40.886719 C 33.382812 40.792969 33.492188 40.746094 33.625 40.746094 C 33.753906 40.746094 33.867188 40.792969 33.960938 40.886719 C 34.054688 40.980469 34.097656 41.089844 34.097656 41.222656 Z M 34.097656 41.222656 " fill-opacity="1" fill-rule="nonzero"/><path fill="#ffffff" d="M 40.8125 31.386719 C 40.8125 31.488281 40.773438 31.578125 40.703125 31.652344 C 40.628906 31.722656 40.539062 31.761719 40.4375 31.761719 C 40.335938 31.761719 40.246094 31.722656 40.171875 31.652344 C 40.101562 31.578125 40.0625 31.488281 40.0625 31.386719 C 40.0625 31.285156 40.101562 31.195312 40.171875 31.121094 C 40.246094 31.050781 40.335938 31.011719 40.4375 31.011719 C 40.539062 31.011719 40.628906 31.050781 40.703125 31.121094 C 40.773438 31.195312 40.8125 31.285156 40.8125 31.386719 Z M 40.8125 31.386719 " fill-opacity="1" fill-rule="nonzero"/><g clip-path="url(#04fa3d2f7b)"><path fill="#ffffff" d="M 42.304688 40.117188 C 42.304688 40.265625 42.273438 40.410156 42.21875 40.546875 C 42.160156 40.683594 42.082031 40.804688 41.976562 40.910156 C 41.871094 41.015625 41.75 41.09375 41.613281 41.152344 C 41.476562 41.207031 41.332031 41.238281 41.183594 41.238281 C 41.035156 41.238281 40.890625 41.207031 40.753906 41.152344 C 40.617188 41.09375 40.496094 41.015625 40.390625 40.910156 C 40.285156 40.804688 40.207031 40.683594 40.148438 40.546875 C 40.089844 40.410156 40.0625 40.265625 40.0625 40.117188 C 40.0625 39.96875 40.089844 39.824219 40.148438 39.6875 C 40.207031 39.550781 40.285156 39.429688 40.390625 39.324219 C 40.496094 39.21875 40.617188 39.140625 40.753906 39.082031 C 40.890625 39.023438 41.035156 38.996094 41.183594 38.996094 C 41.332031 38.996094 41.476562 39.023438 41.613281 39.082031 C 41.75 39.140625 41.871094 39.21875 41.976562 39.324219 C 42.082031 39.429688 42.160156 39.550781 42.21875 39.6875 C 42.273438 39.824219 42.304688 39.96875 42.304688 40.117188 Z M 42.304688 40.117188 " fill-opacity="1" fill-rule="nonzero"/></g><path fill="#ffffff" d="M 24.390625 42.457031 C 24.390625 42.597656 24.34375 42.714844 24.246094 42.8125 C 24.148438 42.910156 24.03125 42.957031 23.894531 42.957031 C 23.753906 42.957031 23.636719 42.910156 23.539062 42.8125 C 23.441406 42.714844 23.394531 42.597656 23.394531 42.457031 C 23.394531 42.320312 23.441406 42.203125 23.539062 42.105469 C 23.636719 42.007812 23.753906 41.960938 23.894531 41.960938 C 24.03125 41.960938 24.148438 42.007812 24.246094 42.105469 C 24.34375 42.203125 24.390625 42.320312 24.390625 42.457031 Z M 24.390625 42.457031 " fill-opacity="1" fill-rule="nonzero"/><g clip-path="url(#31d6aba043)"><path fill="#ffffff" d="M 17.285156 1.023438 C 17.285156 1.144531 17.242188 1.246094 17.15625 1.332031 C 17.074219 1.414062 16.96875 1.457031 16.851562 1.457031 C 16.730469 1.457031 16.628906 1.414062 16.542969 1.332031 C 16.457031 1.246094 16.414062 1.144531 16.414062 1.023438 C 16.414062 0.902344 16.457031 0.800781 16.542969 0.714844 C 16.628906 0.628906 16.730469 0.589844 16.851562 0.589844 C 16.96875 0.589844 17.074219 0.628906 17.15625 0.714844 C 17.242188 0.800781 17.285156 0.902344 17.285156 1.023438 Z M 17.285156 1.023438 " fill-opacity="1" fill-rule="nonzero"/></g><path fill="#ffffff" d="M 26.96875 9.035156 C 26.96875 9.175781 26.917969 9.292969 26.820312 9.394531 C 26.71875 9.492188 26.601562 9.542969 26.460938 9.542969 C 26.320312 9.542969 26.199219 9.492188 26.101562 9.394531 C 26.003906 9.292969 25.953125 9.175781 25.953125 9.035156 C 25.953125 8.894531 26.003906 8.773438 26.101562 8.675781 C 26.199219 8.578125 26.320312 8.527344 26.460938 8.527344 C 26.601562 8.527344 26.71875 8.578125 26.820312 8.675781 C 26.917969 8.773438 26.96875 8.894531 26.96875 9.035156 Z M 26.96875 9.035156 " fill-opacity="1" fill-rule="nonzero"/><path fill="#ffffff" d="M 35.355469 16.511719 C 35.355469 16.636719 35.292969 16.699219 35.167969 16.699219 C 35.042969 16.699219 34.980469 16.636719 34.980469 16.511719 C 34.980469 16.386719 35.042969 16.324219 35.167969 16.324219 C 35.292969 16.324219 35.355469 16.386719 35.355469 16.511719 Z M 35.355469 16.511719 " fill-opacity="1" fill-rule="nonzero"/><path fill="#ffffff" d="M 17.359375 6.09375 C 17.359375 6.347656 17.265625 6.570312 17.085938 6.75 C 16.902344 6.933594 16.683594 7.023438 16.425781 7.023438 C 16.167969 7.023438 15.949219 6.933594 15.765625 6.75 C 15.585938 6.570312 15.492188 6.347656 15.492188 6.09375 C 15.492188 5.835938 15.585938 5.613281 15.765625 5.433594 C 15.949219 5.25 16.167969 5.160156 16.425781 5.160156 C 16.683594 5.160156 16.902344 5.25 17.085938 5.433594 C 17.265625 5.613281 17.359375 5.835938 17.359375 6.09375 Z M 17.359375 6.09375 " fill-opacity="1" fill-rule="nonzero"/><path fill="#ffffff" d="M 24.421875 12.007812 C 24.421875 12.152344 24.371094 12.277344 24.269531 12.378906 C 24.167969 12.480469 24.042969 12.53125 23.898438 12.53125 C 23.753906 12.53125 23.632812 12.480469 23.527344 12.378906 C 23.425781 12.277344 23.375 12.152344 23.375 12.007812 C 23.375 11.863281 23.425781 11.738281 23.527344 11.636719 C 23.632812 11.535156 23.753906 11.484375 23.898438 11.484375 C 24.042969 11.484375 24.167969 11.535156 24.269531 11.636719 C 24.371094 11.738281 24.421875 11.863281 24.421875 12.007812 Z M 24.421875 12.007812 " fill-opacity="1" fill-rule="nonzero"/></g></g></g><g mask="url(#44c954381d)"><g transform="matrix(1, 0, 0, 1, 21, 24)"><g clip-path="url(#b12e6025f4)"><g clip-path="url(#4d4b5f4f4b)"><path fill="#ffffff" d="M 0.675781 0.769531 L 0.675781 9.300781 C 0.675781 9.363281 0.675781 9.421875 0.683594 9.480469 C 0.734375 10.058594 1.027344 10.539062 1.445312 10.855469 C 1.945312 11.023438 2.519531 10.996094 3.039062 10.695312 L 7.242188 8.269531 L 9.242188 7.113281 C 3.464844 9.632812 1.167969 4.78125 0.675781 0.769531 Z M 0.675781 0.769531 " fill-opacity="0.32" fill-rule="nonzero"/></g></g></g></g><path fill="#ffffff" d="M 40.410156 31.035156 L 35.039062 34.136719 L 30.332031 36.851562 L 24.355469 40.304688 C 23.613281 40.734375 22.796875 40.773438 22.085938 40.53125 C 21.492188 40.085938 21.070312 39.398438 21 38.578125 C 20.992188 38.496094 20.988281 38.410156 20.988281 38.324219 L 20.988281 36.976562 C 21.988281 37.699219 23.367188 38.289062 24.945312 37.800781 C 28.132812 36.816406 40.222656 31.125 40.410156 31.035156 Z M 40.410156 31.035156 " fill-opacity="0.32" fill-rule="nonzero"/><g fill="#d11d4d" fill-opacity="1"><g transform="translate(153.075487, 40.438471)"><g><path d="M 8.9375 0.390625 C 6.601562 0.390625 4.679688 -0.207031 3.171875 -1.40625 C 1.660156 -2.613281 0.90625 -4.4375 0.90625 -6.875 L 6.09375 -6.875 C 6.09375 -5.851562 6.375 -5.09375 6.9375 -4.59375 C 7.5 -4.09375 8.226562 -3.84375 9.125 -3.84375 C 10.039062 -3.84375 10.734375 -4.03125 11.203125 -4.40625 C 11.679688 -4.789062 11.921875 -5.300781 11.921875 -5.9375 C 11.921875 -6.519531 11.660156 -6.992188 11.140625 -7.359375 C 10.617188 -7.734375 9.785156 -8.171875 8.640625 -8.671875 C 7.503906 -9.148438 6.5625 -9.617188 5.8125 -10.078125 C 5.0625 -10.546875 4.421875 -11.164062 3.890625 -11.9375 C 3.359375 -12.707031 3.09375 -13.671875 3.09375 -14.828125 C 3.09375 -15.960938 3.378906 -17.03125 3.953125 -18.03125 C 4.535156 -19.039062 5.421875 -19.851562 6.609375 -20.46875 C 7.804688 -21.09375 9.285156 -21.40625 11.046875 -21.40625 C 13.328125 -21.40625 15.128906 -20.800781 16.453125 -19.59375 C 17.785156 -18.394531 18.453125 -16.71875 18.453125 -14.5625 L 13.359375 -14.5625 C 13.359375 -15.375 13.128906 -16.007812 12.671875 -16.46875 C 12.222656 -16.9375 11.609375 -17.171875 10.828125 -17.171875 C 10.015625 -17.171875 9.390625 -16.976562 8.953125 -16.59375 C 8.523438 -16.21875 8.3125 -15.738281 8.3125 -15.15625 C 8.3125 -14.550781 8.578125 -14.054688 9.109375 -13.671875 C 9.640625 -13.296875 10.484375 -12.859375 11.640625 -12.359375 C 12.785156 -11.859375 13.722656 -11.394531 14.453125 -10.96875 C 15.179688 -10.539062 15.8125 -9.945312 16.34375 -9.1875 C 16.875 -8.425781 17.140625 -7.472656 17.140625 -6.328125 C 17.140625 -5.171875 16.847656 -4.082031 16.265625 -3.0625 C 15.679688 -2.039062 14.773438 -1.207031 13.546875 -0.5625 C 12.316406 0.0703125 10.78125 0.390625 8.9375 0.390625 Z M 8.9375 0.390625 "/></g></g></g><g fill="#d11d4d" fill-opacity="1"><g transform="translate(170.809654, 40.438471)"><g><path d="M 9.546875 0 L 4.296875 0 L 7.40625 -16.265625 L 2.28125 -16.265625 L 3.1875 -21.015625 L 18.703125 -21.015625 L 17.796875 -16.265625 L 12.671875 -16.265625 Z M 9.546875 0 "/></g></g></g><g fill="#d11d4d" fill-opacity="1"><g transform="translate(186.653345, 40.438471)"><g><path d="M 10.359375 0.390625 C 8.710938 0.390625 7.269531 0.0859375 6.03125 -0.515625 C 4.789062 -1.128906 3.832031 -2 3.15625 -3.125 C 2.488281 -4.257812 2.15625 -5.578125 2.15625 -7.078125 C 2.15625 -7.804688 2.226562 -8.519531 2.375 -9.21875 L 4.65625 -21.015625 L 9.90625 -21.015625 L 7.53125 -8.859375 C 7.445312 -8.515625 7.40625 -8.144531 7.40625 -7.75 C 7.40625 -6.726562 7.703125 -5.914062 8.296875 -5.3125 C 8.890625 -4.707031 9.695312 -4.40625 10.71875 -4.40625 C 11.738281 -4.40625 12.609375 -4.726562 13.328125 -5.375 C 14.046875 -6.03125 14.523438 -6.96875 14.765625 -8.1875 L 17.265625 -21.015625 L 22.515625 -21.015625 L 19.84375 -7.296875 C 19.40625 -4.972656 18.351562 -3.109375 16.6875 -1.703125 C 15.03125 -0.304688 12.921875 0.390625 10.359375 0.390625 Z M 10.359375 0.390625 "/></g></g></g><g fill="#d11d4d" fill-opacity="1"><g transform="translate(207.778376, 40.438471)"><g><path d="M 0.953125 0 L 4.984375 -21.015625 L 11.59375 -21.015625 C 13.769531 -21.015625 15.671875 -20.625 17.296875 -19.84375 C 18.929688 -19.0625 20.1875 -17.960938 21.0625 -16.546875 C 21.945312 -15.140625 22.390625 -13.515625 22.390625 -11.671875 C 22.390625 -9.578125 21.894531 -7.640625 20.90625 -5.859375 C 19.914062 -4.078125 18.453125 -2.65625 16.515625 -1.59375 C 14.585938 -0.53125 12.265625 0 9.546875 0 Z M 9.578125 -4.59375 C 11.296875 -4.59375 12.707031 -4.921875 13.8125 -5.578125 C 14.925781 -6.242188 15.742188 -7.09375 16.265625 -8.125 C 16.785156 -9.15625 17.046875 -10.257812 17.046875 -11.4375 C 17.046875 -12.957031 16.535156 -14.164062 15.515625 -15.0625 C 14.492188 -15.96875 13.0625 -16.421875 11.21875 -16.421875 L 9.390625 -16.421875 L 7.109375 -4.59375 Z M 9.578125 -4.59375 "/></g></g></g><g fill="#d11d4d" fill-opacity="1"><g transform="translate(229.893664, 40.438471)"><g><path d="M 6.359375 0 L 1.109375 0 L 5.125 -21.015625 L 10.390625 -21.015625 Z M 6.359375 0 "/></g></g></g><g fill="#d11d4d" fill-opacity="1"><g transform="translate(239.43576, 40.438471)"><g><path d="M 12.125 0.390625 C 10.1875 0.390625 8.421875 -0.0195312 6.828125 -0.84375 C 5.234375 -1.664062 3.976562 -2.828125 3.0625 -4.328125 C 2.144531 -5.828125 1.6875 -7.546875 1.6875 -9.484375 C 1.6875 -11.566406 2.210938 -13.519531 3.265625 -15.34375 C 4.328125 -17.175781 5.789062 -18.644531 7.65625 -19.75 C 9.519531 -20.851562 11.609375 -21.40625 13.921875 -21.40625 C 15.890625 -21.40625 17.664062 -20.992188 19.25 -20.171875 C 20.84375 -19.347656 22.097656 -18.1875 23.015625 -16.6875 C 23.941406 -15.1875 24.40625 -13.46875 24.40625 -11.53125 C 24.40625 -9.445312 23.875 -7.488281 22.8125 -5.65625 C 21.75 -3.820312 20.28125 -2.351562 18.40625 -1.25 C 16.539062 -0.15625 14.445312 0.390625 12.125 0.390625 Z M 12.390625 -4.40625 C 13.671875 -4.40625 14.816406 -4.722656 15.828125 -5.359375 C 16.835938 -6.003906 17.625 -6.859375 18.1875 -7.921875 C 18.75 -8.984375 19.03125 -10.09375 19.03125 -11.25 C 19.03125 -12.25 18.816406 -13.15625 18.390625 -13.96875 C 17.972656 -14.78125 17.359375 -15.421875 16.546875 -15.890625 C 15.742188 -16.359375 14.789062 -16.59375 13.6875 -16.59375 C 12.40625 -16.59375 11.257812 -16.269531 10.25 -15.625 C 9.238281 -14.988281 8.453125 -14.144531 7.890625 -13.09375 C 7.328125 -12.050781 7.046875 -10.9375 7.046875 -9.75 C 7.046875 -8.75 7.253906 -7.84375 7.671875 -7.03125 C 8.097656 -6.226562 8.71875 -5.585938 9.53125 -5.109375 C 10.34375 -4.640625 11.296875 -4.40625 12.390625 -4.40625 Z M 12.390625 -4.40625 "/></g></g></g><g fill="#ffae00" fill-opacity="1"><g transform="translate(68.33047, 38.974007)"><g><path d="M 12.5 -6.6875 L 19.53125 -18.015625 L 23.515625 -18.015625 L 22.640625 0 L 18.296875 0 L 18.84375 -10.0625 L 12.578125 0 L 10.1875 0 L 7.84375 -10.09375 L 4.453125 0 L 0 0 L 6.125 -18.015625 L 9.875 -18.015625 Z M 12.5 -6.6875 "/></g></g></g><g fill="#ffae00" fill-opacity="1"><g transform="translate(92.776741, 38.974007)"><g><path d="M 17.453125 0 L 13 0 L 12.453125 -3.53125 L 5.71875 -3.53125 L 3.8125 0 L -1 0 L 9.3125 -18.015625 L 14.03125 -18.015625 Z M 12.015625 -7.28125 L 10.984375 -13.53125 L 7.5625 -7.28125 Z M 12.015625 -7.28125 "/></g></g></g><g fill="#ffae00" fill-opacity="1"><g transform="translate(110.763973, 38.974007)"><g><path d="M 10.25 0.328125 C 8.632812 0.328125 7.148438 -0.0234375 5.796875 -0.734375 C 4.453125 -1.441406 3.382812 -2.4375 2.59375 -3.71875 C 1.8125 -5.007812 1.421875 -6.460938 1.421875 -8.078125 C 1.421875 -9.878906 1.875 -11.566406 2.78125 -13.140625 C 3.6875 -14.722656 4.941406 -15.984375 6.546875 -16.921875 C 8.148438 -17.867188 9.96875 -18.34375 12 -18.34375 C 13.539062 -18.34375 14.921875 -18.046875 16.140625 -17.453125 C 17.367188 -16.867188 18.367188 -16.039062 19.140625 -14.96875 C 19.910156 -13.90625 20.410156 -12.671875 20.640625 -11.265625 L 16 -11.265625 C 15.695312 -12.234375 15.171875 -12.96875 14.421875 -13.46875 C 13.679688 -13.976562 12.785156 -14.234375 11.734375 -14.234375 C 10.648438 -14.234375 9.671875 -13.957031 8.796875 -13.40625 C 7.921875 -12.851562 7.238281 -12.125 6.75 -11.21875 C 6.257812 -10.320312 6.015625 -9.367188 6.015625 -8.359375 C 6.015625 -7.503906 6.195312 -6.726562 6.5625 -6.03125 C 6.925781 -5.34375 7.457031 -4.796875 8.15625 -4.390625 C 8.863281 -3.984375 9.695312 -3.78125 10.65625 -3.78125 C 11.789062 -3.78125 12.765625 -4.050781 13.578125 -4.59375 C 14.390625 -5.132812 15.046875 -5.859375 15.546875 -6.765625 L 20.234375 -6.765625 C 19.441406 -4.585938 18.160156 -2.859375 16.390625 -1.578125 C 14.617188 -0.304688 12.570312 0.328125 10.25 0.328125 Z M 10.25 0.328125 "/></g></g></g><g fill="#ffae00" fill-opacity="1"><g transform="translate(130.989997, 38.974007)"><g><path d="M 10.390625 0.328125 C 8.734375 0.328125 7.222656 -0.0195312 5.859375 -0.71875 C 4.492188 -1.425781 3.414062 -2.421875 2.625 -3.703125 C 1.832031 -4.992188 1.4375 -6.46875 1.4375 -8.125 C 1.4375 -9.914062 1.890625 -11.59375 2.796875 -13.15625 C 3.710938 -14.726562 4.96875 -15.984375 6.5625 -16.921875 C 8.15625 -17.867188 9.945312 -18.34375 11.9375 -18.34375 C 13.625 -18.34375 15.144531 -17.988281 16.5 -17.28125 C 17.863281 -16.582031 18.941406 -15.585938 19.734375 -14.296875 C 20.523438 -13.015625 20.921875 -11.539062 20.921875 -9.875 C 20.921875 -8.09375 20.460938 -6.414062 19.546875 -4.84375 C 18.640625 -3.28125 17.382812 -2.023438 15.78125 -1.078125 C 14.175781 -0.140625 12.378906 0.328125 10.390625 0.328125 Z M 10.625 -3.78125 C 11.726562 -3.78125 12.710938 -4.054688 13.578125 -4.609375 C 14.441406 -5.160156 15.113281 -5.890625 15.59375 -6.796875 C 16.070312 -7.703125 16.3125 -8.65625 16.3125 -9.65625 C 16.3125 -10.507812 16.128906 -11.28125 15.765625 -11.96875 C 15.410156 -12.664062 14.882812 -13.21875 14.1875 -13.625 C 13.5 -14.03125 12.679688 -14.234375 11.734375 -14.234375 C 10.640625 -14.234375 9.65625 -13.957031 8.78125 -13.40625 C 7.914062 -12.851562 7.242188 -12.125 6.765625 -11.21875 C 6.285156 -10.320312 6.046875 -9.367188 6.046875 -8.359375 C 6.046875 -7.503906 6.222656 -6.726562 6.578125 -6.03125 C 6.941406 -5.34375 7.472656 -4.796875 8.171875 -4.390625 C 8.867188 -3.984375 9.6875 -3.78125 10.625 -3.78125 Z M 10.625 -3.78125 "/></g></g></g></svg>